<?xml version="1.0" standalone="no"?>
<!DOCTYPE svg PUBLIC "-//W3C//DTD SVG 20010904//EN"
 "http://www.w3.org/TR/2001/REC-SVG-20010904/DTD/svg10.dtd">
<svg version="1.0" xmlns="http://www.w3.org/2000/svg"
 width="480.000000pt" height="480.000000pt" viewBox="0 0 480.000000 480.000000"
 preserveAspectRatio="xMidYMid meet">
<metadata>
Created by potrace 1.14, written by Peter Selinger 2001-2017
</metadata>
<g transform="translate(0.000000,480.000000) scale(0.100000,-0.100000)"
fill="#000000" stroke="none">
<path d="M2748 4751 c-87 -28 -152 -106 -164 -196 -3 -22 -13 -86 -20 -125 -2
-14 -6 -43 -9 -65 -3 -22 -8 -49 -10 -60 -4 -27 -19 -128 -19 -139 -1 -4 -89
-9 -196 -11 -244 -4 -347 -17 -469 -60 -24 -8 -49 -15 -55 -15 -7 0 -28 33
-46 73 -53 113 -115 246 -148 317 -50 107 -116 154 -217 154 -49 1 -72 -5
-124 -33 -70 -36 -90 -55 -123 -116 -41 -77 -32 -115 87 -377 l106 -233 -24
-20 c-14 -11 -58 -46 -98 -77 -212 -164 -383 -375 -495 -608 -35 -74 -52 -99
-63 -95 -9 2 -27 6 -41 9 -44 9 -203 44 -273 60 -96 22 -144 20 -203 -9 -68
-34 -100 -70 -123 -139 -35 -105 -14 -216 50 -270 50 -43 75 -52 244 -90 88
-20 177 -41 198 -47 l39 -10 -6 -62 c-8 -76 -8 -257 -1 -314 3 -24 7 -60 10
-80 15 -129 66 -308 123 -431 9 -20 11 -37 6 -40 -5 -4 -77 -53 -159 -109
-181 -124 -187 -129 -214 -181 -45 -88 -18 -199 71 -291 52 -53 91 -71 155
-71 63 1 104 20 264 127 74 49 139 93 146 97 7 4 23 -6 40 -26 59 -71 202
-206 283 -269 105 -80 192 -132 335 -200 61 -29 112 -53 114 -55 3 -3 -41
-242 -55 -299 -11 -44 -12 -149 -1 -174 34 -81 98 -131 191 -149 86 -17 116
-15 173 13 48 24 88 69 107 120 6 18 76 352 76 367 0 3 69 5 153 4 132 -3 205
1 332 18 77 10 220 48 325 86 63 23 122 44 131 46 11 4 48 -44 138 -180 67
-102 136 -195 152 -207 98 -69 228 -54 330 39 59 52 87 146 66 222 -8 31 -72
138 -204 339 l-41 64 37 31 c89 75 175 164 261 272 66 83 168 260 215 376 40
97 13 92 251 47 93 -17 190 -32 216 -31 60 0 130 33 166 78 62 78 76 226 30
305 -52 87 -81 101 -278 135 -14 3 -61 12 -105 20 -44 9 -93 18 -110 21 -16 3
-31 6 -33 8 -1 1 -4 74 -7 161 -2 88 -6 168 -8 179 -3 11 -8 40 -12 65 -19
123 -62 266 -124 410 l-37 86 104 74 c247 179 268 196 291 245 34 73 34 136 0
203 -55 109 -135 166 -231 163 -67 -1 -89 -13 -279 -150 l-164 -119 -85 82
c-185 179 -391 311 -618 397 -69 26 -64 16 -48 109 8 43 35 213 42 255 3 22 9
56 13 75 23 110 -31 216 -132 260 -53 24 -157 34 -199 21z m-1029 -1290 c162
-65 258 -195 268 -364 10 -155 -60 -293 -192 -379 -106 -69 -235 -90 -353 -57
-101 29 -158 66 -224 149 -57 72 -82 149 -82 255 0 80 4 98 32 159 58 124 133
194 265 242 81 29 206 27 286 -5z"/>
</g>
</svg>
