<svg role="img" viewBox="109.97 43.45 480.05 473.1">
  <title>A naval mine</title>
  <path d="m586.03 312.87c-3.5039-5.2578-8.3008-8.5078-14.379-9.7383l-38.035-6.957c2.0625-31.746-4.0703-61.797-18.402-90.137l32.777-23.656c5.2578-3.7109 8.3477-8.8125 9.2773-15.305 1.1328-6.082-0.20703-11.598-4.0195-16.543l-2.625-4.0195c-3.5039-4.9453-8.6055-7.9922-15.305-9.1211-5.7734-0.92969-11.289 0.51562-16.543 4.3281l-31.539 22.73c-21.336-23.605-46.742-40.355-76.223-50.25l7.1133-43.293c1.1328-6.1836-0.20703-11.906-4.0195-17.164-3.5039-4.9453-8.3008-7.9922-14.379-9.1211l-4.793-0.92969c-6.1836-0.82422-11.906 0.51562-17.164 4.0195-4.9492 3.8125-7.9922 8.7656-9.1211 14.84l-6.4961 41.59c-14.016-1.2383-27.727-0.98047-41.125 0.77344-7.6289 0.30859-14.789 1.6445-21.492 4.0195-3.5039 0.82422-6.8555 1.8555-10.051 3.0898l-19.324-42.055c-2.5742-5.5664-6.8047-9.4805-12.68-11.75-5.7734-2.3672-11.441-2.2695-17.008 0.30859l-4.3281 2.3203c-5.5664 2.2695-9.6875 6.4961-12.371 12.68-2.0625 5.7734-1.7539 11.441 0.92969 17.008l19.633 42.828c-1.1328 0.61719-2.2695 1.3945-3.3984 2.3203-29.477 20.613-50.508 46.535-63.086 77.773l-38.965-8.6562c-6.082-1.5469-11.75-0.41406-17.008 3.3984-5.5664 2.9922-8.9141 7.5273-10.051 13.609l-1.3867 4.3203c-1.1367 6.1836-0.10156 12.164 3.0898 17.938 3.5039 4.9453 8.3477 8.1914 14.531 9.7383l37.105 8.6562c-4.1211 32.676 0.56641 63.441 14.066 92.305l-30.301 20.562c-5.2578 3.5039-8.6055 8.3477-10.051 14.531-0.82422 6.082 0.51563 11.75 4.0195 17.008l2.625 3.5547c3.5039 5.2578 8.1406 8.6055 13.914 10.051 6.4961 0.82422 12.371-0.51562 17.625-4.0195l28.758-19.176c20.719 25.664 46.227 44.168 76.535 55.508l-6.957 35.41c-1.1328 6.1836 0.050781 12.062 3.5547 17.625 3.5039 4.9453 8.3008 7.9922 14.379 9.1211l4.4844 0.92969c6.082 1.4453 11.75 0.56641 17.008-2.625 5.2578-3.8125 8.4492-8.8125 9.5859-14.996l6.957-34.016c33.602 3.5039 65.246-1.5977 94.93-15.305l22.418 34.016c3.5039 5.2578 8.4492 8.5 14.844 9.7383 5.875 1.4453 11.441 0.41406 16.699-3.0898l3.8633-2.168c5.2578-3.5039 8.6055-8.5 10.051-14.996 1.1367-6.082-0.050781-11.75-3.5547-17.008l-21.336-33.242c25.664-20.719 43.91-46.227 54.734-76.535l38.5 6.957c6.082 1.1328 11.75-0.050781 17.008-3.5547 4.9453-3.3984 7.9922-8.1914 9.1211-14.379l0.92969-4.3281c1.1445-6.1836-0.042969-12.008-3.5508-17.473zm-280.47-84.074c-4.6133 10.801-12.414 18.465-23.398 22.973-10.988 4.5117-21.953 4.5625-32.906 0.15625-10.84-4.3555-18.473-11.93-22.902-22.715-4.4297-10.785-4.3359-21.578 0.28125-32.379 4.7266-10.754 12.582-18.391 23.57-22.898 10.988-4.5117 21.895-4.5859 32.738-0.23047 10.953 4.4062 18.641 12.008 23.07 22.785 4.4219 10.781 4.2695 21.551-0.45312 32.309z"></path>
</svg>
